<?xml version="1.0" encoding="iso-8859-1"?>
<!-- Generator: Adobe Illustrator 18.0.0, SVG Export Plug-In . SVG Version: 6.00 Build 0)  -->
<!DOCTYPE svg PUBLIC "-//W3C//DTD SVG 1.1//EN" "http://www.w3.org/Graphics/SVG/1.1/DTD/svg11.dtd">
<svg xmlns="http://www.w3.org/2000/svg" xmlns:xlink="http://www.w3.org/1999/xlink" version="1.1" id="Capa_1" x="0px" y="0px" viewBox="0 0 46 46" style="enable-background:new 0 0 46 46;" xml:space="preserve" width="512px" height="512px">
<g>
	<path d="M23.487,19.726c-6.159,0-11.534-0.695-14.378-1.859l-1.866-0.749c0.005,0.01,0.008,0.02,0.013,0.03   c2.736,5.623,8.107,9.269,14.245,9.783v12.081c-3.2,0.071-11,0.545-11,3.488c0,3.331,9.996,3.5,12,3.5s12-0.169,12-3.5   c0-2.943-7.8-3.417-11-3.488V26.983c6.543-0.182,12.347-3.901,15.234-9.815l-1.85,0.8C34.207,19.087,29.328,19.726,23.487,19.726z    M18.352,22.833c-0.552,0-1-0.448-1-1c0-0.552,0.448-1,1-1c0.552,0,1,0.448,1,1C19.352,22.386,18.904,22.833,18.352,22.833z    M32.343,42.5C31.451,43.093,28.089,44,22.5,44s-8.952-0.907-9.843-1.5c0.837-0.557,3.853-1.39,8.843-1.49V42c0,0.553,0.448,1,1,1   s1-0.447,1-1v-0.99C28.49,41.11,31.506,41.943,32.343,42.5z M27.167,23.271c-0.552,0-1-0.448-1-1c0-0.552,0.448-1,1-1   c0.552,0,1,0.448,1,1C28.167,22.823,27.719,23.271,27.167,23.271z" fill="#FFDA44"/>
	<path d="M39.224,5.814c-0.355-0.976-1.077-1.77-1.992-2.267C35.748,0.781,27.864,0,23,0C18.135,0,10.251,0.781,8.767,3.548   c-0.914,0.496-1.636,1.29-1.991,2.266c-1.044,2.87-1.184,5.953-0.452,8.78l3.536,1.418c2.584,1.058,7.803,1.713,13.627,1.713   c5.504,0,10.22-0.598,12.614-1.599l3.579-1.548C40.407,11.756,40.266,8.68,39.224,5.814z M35.472,4.436l0.017,0.074   c-0.009,0.027-0.028,0.056-0.046,0.084c-0.016,0.026-0.028,0.052-0.051,0.079c-0.027,0.031-0.066,0.064-0.102,0.097   c-0.032,0.029-0.059,0.057-0.099,0.087c-0.044,0.033-0.1,0.068-0.153,0.102c-0.047,0.031-0.091,0.061-0.145,0.093   c-0.06,0.035-0.132,0.07-0.201,0.105c-0.064,0.033-0.123,0.065-0.194,0.098c-0.074,0.035-0.161,0.07-0.243,0.105   c-0.081,0.034-0.157,0.068-0.245,0.103c-0.09,0.035-0.192,0.07-0.289,0.105c-0.096,0.034-0.187,0.069-0.29,0.103   c-0.106,0.035-0.224,0.069-0.337,0.104c-0.11,0.034-0.215,0.068-0.332,0.101c-0.122,0.035-0.256,0.068-0.386,0.102   c-0.123,0.032-0.241,0.065-0.371,0.096c-0.138,0.033-0.289,0.065-0.435,0.098c-0.136,0.03-0.266,0.061-0.409,0.09   c-0.155,0.032-0.322,0.061-0.484,0.092c-0.148,0.028-0.29,0.056-0.444,0.083c-0.175,0.03-0.363,0.057-0.547,0.086   c-0.154,0.024-0.303,0.049-0.463,0.072c-0.191,0.027-0.394,0.05-0.593,0.075c-0.167,0.021-0.328,0.043-0.501,0.063   c-0.206,0.023-0.425,0.042-0.639,0.062c-0.177,0.017-0.347,0.036-0.529,0.051c-0.244,0.02-0.502,0.035-0.755,0.052   c-0.164,0.011-0.322,0.024-0.49,0.033c-0.302,0.016-0.616,0.027-0.93,0.038c-0.132,0.005-0.257,0.012-0.391,0.016   C23.942,6.994,23.477,7,23,7c-0.48,0-0.947-0.006-1.403-0.019c-1.02-0.028-1.971-0.087-2.864-0.167   c-0.702-0.063-1.37-0.137-1.989-0.224c-0.031-0.004-0.059-0.01-0.09-0.014c-0.668-0.096-1.289-0.204-1.854-0.32   c-2.664-0.548-4.172-1.276-4.286-1.74l0.016-0.058C10.919,3.591,15.485,2,23,2C30.521,2,35.089,3.594,35.472,4.436z" fill="#FFDA44"/>
</g>
<g>
</g>
<g>
</g>
<g>
</g>
<g>
</g>
<g>
</g>
<g>
</g>
<g>
</g>
<g>
</g>
<g>
</g>
<g>
</g>
<g>
</g>
<g>
</g>
<g>
</g>
<g>
</g>
<g>
</g>
</svg>
