    <svg width="517" height="512">
        <defs id="SvgjsDefs1027"></defs>
        <g id="SvgjsG1028" featurekey="root" fill="#000000"></g>
        <g id="SvgjsG1029" featurekey="container1" fill="tomato" transform="matrix(2.334230417191036,0,0,2.334230417191036,20,20)">
            <defs xmlns="http://www.w3.org/2000/svg"></defs>
            <g xmlns="http://www.w3.org/2000/svg">
                <path d="M102.174,199.588c53.8,0,97.413-43.613,97.413-97.413S155.974,4.762,102.174,4.762S4.761,48.375,4.761,102.175    S48.375,199.588,102.174,199.588z M102.174,9.762c50.957,0,92.413,41.457,92.413,92.413s-41.456,92.413-92.413,92.413    c-50.957,0-92.413-41.457-92.413-92.413S51.218,9.762,102.174,9.762z"></path>
                <path d="M102.174,191.585c49.38,0,89.41-40.03,89.41-89.41s-40.03-89.41-89.41-89.41c-49.38,0-89.41,40.03-89.41,89.41    S52.794,191.585,102.174,191.585z M102.174,14.765c48.198,0,87.41,39.212,87.41,87.41s-39.212,87.41-87.41,87.41    c-48.198,0-87.41-39.212-87.41-87.41S53.976,14.765,102.174,14.765z"></path>
                <path d="M102.174,204.35c56.339,0,102.174-45.835,102.174-102.175S158.513,0,102.174,0C45.835,0,0,45.835,0,102.175    S45.835,204.35,102.174,204.35z M102.174,2c55.236,0,100.174,44.938,100.174,100.175S157.411,202.35,102.174,202.35    C46.938,202.35,2,157.411,2,102.175S46.938,2,102.174,2z"></path>
            </g>
        </g>
        <g id="SvgjsG1030" featurekey="symbol1" fill="tomato" transform="matrix(1.1028178767020131,0,0,1.1028178767020131,203.85756117487392,95.82879301887475)">
            <path xmlns="http://www.w3.org/2000/svg" fill-rule="evenodd" clip-rule="evenodd" d="M75.86,14.8c-0.8,0-2.283,0.267-4.449,0.8c-2.101,0.533-3.551,0.8-4.351,0.8  l-3.399-0.25c-0.367,0-0.65,0.034-0.851,0.1l0.65,0.85c0.267,0.333,0.483,0.566,0.649,0.7c0.233,0.267,0.317,0.534,0.25,0.8  c0,0.333-0.133,0.583-0.399,0.75c-2.567,1.7-4.467,3.65-5.7,5.85c-1.6,2.7-2.65,4.4-3.15,5.1c-1.033,1.4-2.399,2.65-4.1,3.75  c-1.7,1.133-3.883,2.333-6.55,3.6c-2.767,1.434-5.4,2.617-7.9,3.55c-5.2,1.933-9.866,6.383-14,13.35  c-1.967,3.333-3.483,5.583-4.55,6.75c-1.934,2.1-4.2,3.15-6.8,3.15c-1.3,0-2.4-0.333-3.3-1l-0.2-0.15l0.45,0.4  c1.066,0.833,2.333,1.25,3.8,1.25c3.6,0,6.083-1.133,7.45-3.4c1.399-2.167,2.85-3.867,4.35-5.1c0.8-0.567,1.633-1.034,2.5-1.4  c0.4-1.466,1.017-2.583,1.85-3.35c0.467-0.434,0.934-0.417,1.4,0.05c0.434,0.433,0.417,0.883-0.05,1.35  c-0.601,0.6-1.05,1.533-1.351,2.8c-0.199,1.2-0.3,2.567-0.3,4.1c0.067,3.833-1.149,6.083-3.649,6.75c-1.567,0.4-2.9,1-4,1.8  c-1,0.733-1.5,1.383-1.5,1.95l-0.15,5.9c0,0.867-0.066,1.9-0.2,3.1c0,0.7,0.067,1.15,0.2,1.35c0.2,0.2,0.783,0.517,1.75,0.95  l0.75,0.4c1.333-0.6,3.017-1.267,5.05-2l-0.2-0.45l-0.399-0.45l-2.45,0.4l-0.15,0.05c-0.732,0-1.217-0.3-1.449-0.9  c-0.067-0.1-0.101-0.45-0.101-1.05c0-2.733,1.167-5.05,3.5-6.95c1.4-1.067,3.8-2.434,7.2-4.1l1.8-0.8c2.2-1.1,3.867-2.1,5-3  c1.867-1.567,2.8-3.35,2.8-5.35c0-0.633-0.267-1.583-0.8-2.85c-0.366-0.9-0.616-1.467-0.75-1.7c-0.366-0.6-0.3-1.05,0.2-1.35  c0.6-0.367,1.066-0.284,1.4,0.25c0.399,0.633,0.732,1.316,1,2.05c0.366,0.9,0.633,1.7,0.8,2.4l0.149-0.05  c2.967-0.5,4.917-0.75,5.851-0.75h1.05c3.333-0.033,5.75-0.483,7.25-1.35c0.767-0.467,1.85-1.417,3.25-2.85  c-0.8-0.4-1.583-0.95-2.35-1.65c-1.367-1.333-2.717-3.35-4.051-6.05c-0.1-0.267-0.1-0.517,0-0.75c0.101-0.267,0.268-0.467,0.5-0.6  c0.268-0.1,0.518-0.1,0.75,0c0.268,0.1,0.467,0.267,0.601,0.5c1.167,2.533,2.35,4.367,3.55,5.5c0.967,0.833,1.967,1.4,3,1.7  c0.6,0.167,1.167,0.25,1.7,0.25l4.75-0.35c2.267-0.267,4-0.4,5.2-0.4c2.3,0,3.982,0.284,5.05,0.85c0.533,0.2,2.217,1.033,5.05,2.5  c0.233,0.133,0.4,0.333,0.5,0.6c0.066,0.233,0.033,0.483-0.1,0.75c-0.301,0.567-0.75,0.7-1.351,0.4c-2.767-1.467-4.417-2.3-4.95-2.5  c-0.833-0.4-2.232-0.6-4.199-0.6c-1.033,0-2.7,0.117-5,0.35l-4.95,0.35c-0.033,0-0.583-0.033-1.65-0.1c-1.8,1.934-3.25,3.2-4.35,3.8  c-1.767,0.966-4.317,1.5-7.65,1.6c-1.733,3.1-4.1,5.8-7.1,8.1c-1.833,1.367-2.934,2.283-3.3,2.75c-0.801,0.867-1.2,1.9-1.2,3.1  c0,0.7,0.149,1.1,0.45,1.2l2.149,0.05c2.2,0.1,3.583,1.15,4.15,3.15c2-0.1,3.7-0.117,5.1-0.05c0.267,0,0.5,0.1,0.7,0.3  c0.2,0.2,0.283,0.417,0.25,0.65c0,0.267-0.1,0.5-0.3,0.7s-0.434,0.283-0.7,0.25c-1.733-0.033-3.65,0-5.75,0.1  c-3,0.233-5.7,0.617-8.1,1.15H37.36c-3.366,0.7-6.55,1.6-9.55,2.7h-0.05c-2.333,0.833-4.45,1.667-6.35,2.5  c-1.601,0.733-3.518,1.7-5.75,2.9c-0.067,0.033-0.2,0.05-0.4,0.05c-0.4,0-0.7-0.15-0.9-0.45c-0.133-0.267-0.166-0.517-0.1-0.75  c0.1-0.267,0.267-0.467,0.5-0.6l4-2.05c-0.9-0.433-1.517-0.816-1.85-1.15L16.811,82c-0.333-0.6-0.483-1.483-0.45-2.65l0.351-8.85  c-0.033-1.233,0.75-2.433,2.35-3.6c1.4-0.933,2.934-1.617,4.601-2.05c1.5-0.4,2.232-2,2.199-4.8c0-1.2,0.033-2.083,0.101-2.65  l-1,0.65c-1.2,0.9-2.483,2.417-3.851,4.55c-1.732,2.867-4.783,4.3-9.149,4.3c-1.967,0-3.65-0.55-5.05-1.65  c-1.5-1.2-2.25-2.7-2.25-4.5c0-0.733,0.183-1.383,0.55-1.95c0.5-0.833,1.217-1.25,2.149-1.25c0.268,0,0.551,0.1,0.851,0.3  c0.333,0.267,0.467,0.617,0.399,1.05l-0.399,1.7c0.066,0.533,0.316,0.95,0.75,1.25c0.633,0.433,1.383,0.65,2.25,0.65  c2,0,3.783-0.85,5.35-2.55c0.934-0.934,2.367-3.083,4.3-6.45c4.367-7.367,9.384-12.083,15.051-14.15  c2.467-0.9,5.017-2.05,7.649-3.45c2.7-1.333,4.851-2.5,6.45-3.5c1.4-0.933,2.583-2.033,3.55-3.3c0.601-0.867,1.601-2.483,3-4.85  c1.267-2.267,3.05-4.233,5.351-5.9l-0.051-0.1c-0.8-1-1.199-1.7-1.199-2.1c0-0.5,0.166-0.917,0.5-1.25  c0.533-0.5,1.399-0.75,2.6-0.75l3.4,0.3c0.166-0.034,1.433-0.284,3.8-0.75c2.233-0.567,3.866-0.85,4.899-0.85  c1.667,0,3.051,0.65,4.15,1.95c0.733,0.833,1.566,1.25,2.5,1.25l1.3-0.1c0.333-0.034,0.617,0.083,0.851,0.35  c0.232,0.3,0.283,0.617,0.149,0.95L83.061,23l-0.25,0.5c-0.267,0.233-0.6,0.35-1,0.35c-0.566,0-1.1-0.417-1.6-1.25l-0.351-0.45  c-0.366,0.067-0.75,0.3-1.149,0.7c-0.4,0.433-0.601,0.883-0.601,1.35c0,0.566,0.101,0.95,0.301,1.15c0.066,0.1,0.232,0.15,0.5,0.15  l0.25-0.1c0.467-0.167,0.933-0.25,1.399-0.25c0.867,0,1.3,0.583,1.3,1.75c0,0.6-0.316,1.533-0.949,2.8  c-0.801,1.667-1.733,2.5-2.801,2.5c-0.232,0-1.033-0.367-2.399-1.1l-0.7-0.4c0.2,1,0.316,1.716,0.35,2.15l4.601,0.3  c2.866,0.233,5.35,0.317,7.45,0.25c2.3-0.2,4.133,0.333,5.5,1.6c1.232,1.133,2.033,2.633,2.399,4.5  c0.067,0.267,0.017,0.517-0.149,0.75c-0.167,0.233-0.384,0.367-0.65,0.4c-0.267,0.067-0.517,0.017-0.75-0.15  c-0.2-0.167-0.333-0.383-0.4-0.65c-0.232-1.367-0.816-2.5-1.75-3.4c-0.967-0.867-2.316-1.25-4.05-1.15  c-2.167,0.1-4.75,0.017-7.75-0.25l-4.399-0.25c-0.167,2.467-0.967,4.767-2.4,6.9c1.467-0.567,2.95-1.083,4.45-1.55  c3.2-1.233,5.533-1.967,7-2.2c1.6-0.333,2.883,0.017,3.85,1.05c0.833,0.833,1.384,1.85,1.65,3.05c0.066,0.267,0.017,0.517-0.15,0.75  c-0.167,0.233-0.383,0.367-0.649,0.4c-0.233,0.066-0.45,0.017-0.65-0.15c-0.233-0.167-0.383-0.383-0.45-0.65  c-0.133-0.7-0.517-1.367-1.149-2c-0.5-0.5-1.2-0.683-2.101-0.55c-1.399,0.3-3.633,1-6.7,2.1c-2.666,0.933-4.717,1.7-6.149,2.3  c1.533,0.333,3.417,0.5,5.649,0.5c0.334,0,1.65-0.067,3.95-0.2c1.967-0.167,3.267-0.25,3.9-0.25c0.767,0,1.733,0.267,2.899,0.8  c1,0.566,1.817,1.183,2.45,1.85c0.467,0.466,0.45,0.933-0.05,1.4c-0.2,0.2-0.434,0.3-0.7,0.3c-0.267-0.033-0.5-0.15-0.7-0.35  c-0.5-0.533-1.133-1.017-1.899-1.45c-0.9-0.4-1.567-0.6-2-0.6c-0.2,0-1.45,0.067-3.75,0.2c-2,0.167-3.367,0.25-4.101,0.25  c-4.267,0-7.116-0.517-8.55-1.55l-0.3-0.2c-0.367-0.467-1.9-3.217-4.6-8.25c-0.134-0.267-0.167-0.517-0.101-0.75  c0.101-0.267,0.25-0.467,0.45-0.6c0.267-0.133,0.517-0.167,0.75-0.1c0.267,0.1,0.467,0.267,0.6,0.5l3.801,6.9  c2.633-2.667,3.916-5.617,3.85-8.85c-0.1-1.3-0.316-2.5-0.65-3.6c-0.5,0.133-0.967,0.333-1.399,0.6c-1.134,0.6-1.8,0.9-2,0.9  c-0.9,0-1.533-0.567-1.9-1.7v-0.1l-0.149,0.05c-0.768,0.367-1.351,0.55-1.75,0.55c-0.934,0-1.483-0.433-1.65-1.3l0.05-2.05  c0-0.2,0.267-1.066,0.8-2.6c0.067-0.233,0.233-0.417,0.5-0.55c0.233-0.1,0.483-0.1,0.75,0c0.268,0.067,0.467,0.217,0.601,0.45  c0.1,0.233,0.1,0.483,0,0.75l-0.75,2.3v0.9l0.55-0.25c0.7-0.333,1.184-0.5,1.45-0.5c0.7,0,1.2,0.583,1.5,1.75l0.05,0.2l1.05-0.55  c1.167-0.633,2.101-0.95,2.8-0.95h0.15l0.25,0.05c0.8,0.133,1.783,0.533,2.95,1.2l1.5,0.85c0.233-0.167,0.55-0.633,0.95-1.4  l0.649-1.5c-0.3,0.133-0.583,0.2-0.85,0.2c-1.9,0-2.851-1.1-2.851-3.3c0-0.967,0.4-1.883,1.2-2.75c0.8-0.8,1.65-1.2,2.55-1.2  c0.7,0,1.268,0.283,1.7,0.85l0.95-3.15c-1.6,0-2.95-0.634-4.05-1.9C77.761,15.217,76.894,14.8,75.86,14.8z M89.911,37.8  c0.199-0.167,0.433-0.233,0.699-0.2c0.301,0,0.533,0.117,0.7,0.35c0.833,1.033,1.417,2.2,1.75,3.5c0.067,0.233,0.033,0.466-0.1,0.7  c-0.167,0.233-0.367,0.383-0.601,0.45l-0.25,0.05c-0.533,0-0.85-0.267-0.949-0.8c-0.233-0.967-0.7-1.867-1.4-2.7  c-0.167-0.2-0.233-0.433-0.2-0.7C89.561,38.183,89.678,37.967,89.911,37.8z M83.711,49.65c2.033,0.2,3.45,1.083,4.25,2.65  c0.233,0.6,0.066,1.05-0.5,1.35l-0.4,0.1c-0.399,0-0.717-0.2-0.95-0.6c-0.366-0.867-1.217-1.383-2.55-1.55  c-0.267-0.033-0.483-0.15-0.649-0.35c-0.2-0.2-0.283-0.433-0.25-0.7c0.033-0.267,0.149-0.5,0.35-0.7  C83.211,49.683,83.444,49.617,83.711,49.65z M84.511,49.1c-0.2-0.2-0.3-0.417-0.3-0.65c-0.033-0.267,0.05-0.517,0.25-0.75  c0.167-0.2,0.383-0.3,0.649-0.3c1.9-0.133,3.417,0.517,4.551,1.95c0.399,0.5,0.35,0.967-0.15,1.4c-0.167,0.133-0.35,0.2-0.55,0.2  c-0.333,0-0.601-0.117-0.8-0.35c-0.733-0.9-1.7-1.333-2.9-1.3C84.961,49.333,84.711,49.267,84.511,49.1z M43.561,58.4  c-0.267,2.4-1.433,4.434-3.5,6.1c-0.967,0.833-2.649,1.85-5.05,3.05l-1,2.75c-0.467,1.333-0.7,2.317-0.7,2.95  c0.233,0.467,1.233,1.383,3,2.75l1.15,0.95c2.433-0.434,4.667-0.75,6.7-0.95c-0.4-0.8-1.117-1.233-2.15-1.3  c-1.566,0-2.483-0.067-2.75-0.2c-1.2-0.433-1.8-1.433-1.8-3c0-1.633,0.566-3.117,1.7-4.45c0.666-0.667,1.866-1.65,3.6-2.95  c2.5-1.934,4.5-4.1,6-6.5c-1.4,0.133-2.983,0.367-4.75,0.7L43.561,58.4z M32.461,68.75c-3.101,1.467-5.233,2.683-6.4,3.65  c-1.8,1.5-2.733,3.25-2.8,5.25l2.1-0.35l0.2-0.05c0.7,0,1.333,0.483,1.9,1.45l0.5,0.85c2.333-0.833,4.683-1.533,7.05-2.1  c-2.467-1.867-3.7-3.233-3.7-4.1c0-0.9,0.283-2.117,0.851-3.65L32.461,68.75z"></path>
        </g>
        <g id="SvgjsG1031" featurekey="text1" fill="green" transform="matrix(4.714488271560377,0,0,4.714488271560377,154.3798014039491,190.59886388082734)">
            <path d="M4.08 20 l-2.12 -10.9 l-0.98 0 l0.34 -2.32 l5.4 0 l-0.34 2.32 l-1.24 0 l1.32 7.12 l3.32 -5.52 l-0.3 -1.6 l-1.2 0 l0.34 -2.32 l5.3 0 l-0.36 2.32 l-1.36 0 l1.36 7.12 c2.24 -3.4 3.1 -5.32 3.3 -7.12 l-1.26 0 l0.36 -2.32 l5.68 0 l-0.34 2.32 l-1.12 0 c-0.26 1.92 -1.2 4.28 -5.52 10.9 l-3.08 0 l-1.06 -5.46 l-3.36 5.46 l-3.08 0 z M21.84 17.06 l0.56 -4.14 l-1.06 0 l0.32 -2.26 l4.1 0 l-0.84 5.94 c-0.02 0.2 -0.04 0.36 -0.04 0.5 c0 0.4 0.12 0.62 0.52 0.62 c0.36 0 0.64 -0.18 0.64 -0.18 l-0.24 2.36 c-0.48 0.14 -1 0.22 -1.54 0.22 c-1.9 0 -2.48 -1 -2.48 -2.3 c0 -0.24 0.02 -0.5 0.06 -0.76 z M22.62 7.4 c0 -0.98 0.84 -1.8 1.82 -1.8 s1.8 0.82 1.8 1.8 s-0.82 1.82 -1.8 1.82 s-1.82 -0.84 -1.82 -1.82 z M27.46 17.06 l1.24 -9.16 l-1.06 0 l0.34 -2.26 l4.08 0 l-1.52 10.96 c-0.02 0.2 -0.04 0.36 -0.04 0.5 c0 0.4 0.12 0.62 0.52 0.62 c0.36 0 0.64 -0.18 0.64 -0.18 l-0.24 2.36 c-0.48 0.14 -1 0.22 -1.54 0.22 c-1.9 0 -2.48 -1 -2.48 -2.3 c0 -0.24 0.02 -0.5 0.06 -0.76 z M32.699999999999996 16.56 c0 -3.28 1.84 -6.18 4.8 -6.18 c0.66 0 1.54 0.26 1.98 0.88 l0.46 -3.36 l-1.06 0 l0.32 -2.26 l4.16 0 l-1.58 11.02 c-0.02 0.12 -0.04 0.36 -0.04 0.54 c0 0.4 0.18 0.52 0.4 0.52 c0.34 0 0.62 -0.18 0.62 -0.18 l-0.24 2.36 c-0.44 0.14 -1 0.22 -1.52 0.22 c-1.32 0 -2.12 -0.42 -2.12 -1.74 l-0.06 0 c-0.52 0.96 -1.6 1.9 -3.1 1.9 s-3.02 -0.94 -3.02 -3.72 z M36.8 17.96 c1.02 0 2.2 -1.9 2.2 -3.78 c0 -1.14 -0.46 -1.48 -1.04 -1.48 c-1.26 0 -2.1 1.8 -2.1 3.74 c0 0.96 0.24 1.52 0.94 1.52 z"></path>
        </g>
        <g id="SvgjsG1032" featurekey="text2" fill="#0ef3ef" transform="matrix(4.370078623478377,0,0,4.370078623478377,155.85354326606662,271.5275580414684)">
            <path d="M2.42 20 l0.34 -2.32 l1.4 0 l1.18 -8.38 l-1.92 0 l-0.3 2.04 l-2.4 0 l0.64 -4.56 l11.92 0 l-0.58 4.56 l-2.42 0 l0.24 -2.04 l-1.94 0 l-1.16 8.38 l1.42 0 l-0.34 2.32 l-6.08 0 z M13.54 17.06 l0.56 -4.14 l-1.06 0 l0.32 -2.26 l4.1 0 l-0.84 5.94 c-0.02 0.2 -0.04 0.36 -0.04 0.5 c0 0.4 0.12 0.62 0.52 0.62 c0.36 0 0.64 -0.18 0.64 -0.18 l-0.24 2.36 c-0.48 0.14 -1 0.22 -1.54 0.22 c-1.9 0 -2.48 -1 -2.48 -2.3 c0 -0.24 0.02 -0.5 0.06 -0.76 z M14.32 7.4 c0 -0.98 0.84 -1.8 1.82 -1.8 s1.8 0.82 1.8 1.8 s-0.82 1.82 -1.8 1.82 s-1.82 -0.84 -1.82 -1.82 z M18.5 18.5 c0 -0.84 0.66 -1.56 1.62 -2.08 c-0.56 -0.5 -0.86 -1.2 -0.86 -2.14 c0 -2.24 1.66 -3.9 4.48 -3.9 c0.94 0 1.76 0.2 2.38 0.56 c0.18 -0.28 0.3 -0.62 0.3 -1.12 l0 -0.66 l2.3 0.34 l0.02 0.32 c0 0.98 -0.36 1.74 -1.52 2.28 c0.24 0.44 0.36 0.98 0.36 1.6 c0 2.36 -1.9 3.58 -4.54 3.58 c-0.54 0 -1.02 -0.04 -1.46 -0.14 c-0.24 0.16 -0.4 0.38 -0.4 0.64 c0 1.22 6.56 -0.2 6.56 3.58 c0 2.22 -2.06 3.48 -5.28 3.48 c-2.62 0 -4.7 -0.84 -4.7 -2.42 c0 -1.3 1.36 -2.08 1.96 -2.36 c-0.7 -0.32 -1.22 -0.82 -1.22 -1.56 z M23.14 20.76 c-0.32 -0.04 -1.02 -0.08 -1.76 -0.22 c-0.3 0.2 -0.86 0.62 -0.86 1.22 c0 0.82 1.16 1.06 2.16 1.06 c1.64 0 2.14 -0.52 2.14 -1.12 s-0.54 -0.84 -1.68 -0.94 z M23.26 15.219999999999999 c0.84 0 1.26 -0.68 1.26 -1.58 c0 -0.72 -0.32 -1.2 -0.94 -1.2 c-0.82 0 -1.28 0.72 -1.28 1.7 c0 0.6 0.34 1.08 0.96 1.08 z M33.74 16 l-1.98 0.7 c0.1 0.88 0.44 1.26 1.1 1.26 c0.7 0 1.26 -0.38 1.54 -1.1 l2.48 0.88 c-0.68 1.56 -1.96 2.54 -4.24 2.54 c-2.5 0 -3.94 -1.18 -3.94 -3.9 c0 -2.6 1.32 -6 5.44 -6 c1.64 0 3.16 0.66 3.16 2.44 c0 1.46 -0.94 2.26 -3.56 3.18 z M33.6 12.6 c-0.9 0 -1.52 0.9 -1.76 2.16 l0.9 -0.32 c1.04 -0.36 1.58 -0.62 1.58 -1.2 c0 -0.4 -0.14 -0.64 -0.72 -0.64 z M38.36000000000001 20 l0.96 -7.08 l-1.06 0 l0.32 -2.26 l3.92 0 l-0.26 1.94 l0.1 0.04 c0.52 -1.2 1.3 -2.26 2.68 -2.26 c0.5 0 1.08 0.12 1.42 0.46 l-1.68 3.36 c-0.24 -0.24 -0.44 -0.34 -0.86 -0.34 c-1.62 0 -1.9 2.58 -2.14 4.2 l-0.34 1.94 l-3.06 0 z"></path>
        </g>
        <g id="SvgjsG1033" featurekey="text3" fill="" transform="matrix(0.851517220080655,0,0,0.851517220080655,157.34805695035436,386.92761876756924)">
            <path d="M3.26 9.84 l0 12.96 l6.6 0 l0 1.2 l-7.92 0 l0 -14.16 l1.32 0 z M13.6 19.04 l6.5 0 l-3.2 -7.76 z M17.64 9.84 l5.96 14.16 l-1.48 0 l-1.54 -3.76 l-7.5 0 l-1.6 3.76 l-1.38 0 l6.18 -14.16 l1.36 0 z M26.040000000000003 16.92 q0 2.7 1.66 4.45 t4.34 1.79 q2.7 0 4.34 -1.77 t1.66 -4.47 q0 -2.74 -1.64 -4.47 t-4.38 -1.77 q-2.68 0 -4.32 1.76 t-1.66 4.48 z M32.040000000000006 9.48 q2.16 0 3.82 0.95 t2.57 2.66 t0.93 3.83 q0 3.26 -2.06 5.33 t-5.26 2.11 q-3.22 0 -5.24 -2.09 t-2.08 -5.35 q0.02 -3.26 2.04 -5.32 t5.28 -2.12 z M51.620000000000005 9.84 l0 1.2 l-4.84 0 l0 12.96 l-1.32 0 l0 -12.96 l-4.84 0 l0 -1.2 l11 0 z M55.12 9.84 l0 14.16 l-1.32 0 l0 -14.16 l1.32 0 z M60.660000000000004 19.04 l6.5 0 l-3.2 -7.76 z M64.7 9.84 l5.96 14.16 l-1.48 0 l-1.54 -3.76 l-7.5 0 l-1.6 3.76 l-1.38 0 l6.18 -14.16 l1.36 0 z M74.4 9.84 l8.62 12.4 l0.04 0 l0 -12.4 l1.32 0 l0 14.16 l-1.7 0 l-8.62 -12.4 l-0.04 0 l0 12.4 l-1.32 0 l0 -14.16 l1.7 0 z  M97.22000000000001 23.16 q1.9 0 3.4 -2.18 l-3.92 -4.08 q-1.32 0.74 -2 1.51 t-0.68 1.79 q0 1.3 0.91 2.12 t2.29 0.84 z M97.06000000000002 15.42 q1.56 -0.78 2.08 -1.43 t0.52 -1.41 q0 -0.82 -0.55 -1.36 t-1.45 -0.54 q-0.84 0 -1.47 0.55 t-0.65 1.45 q0 1.04 1.52 2.74 z M100.98000000000002 12.48 q0 1.1 -0.62 1.92 t-2.54 1.84 l3.44 3.64 l2.04 -3.68 l1.36 0 l-2.56 4.52 l3.22 3.38 l-1.78 0 l-2.12 -2.28 q-1.02 1.36 -2.07 1.95 t-2.33 0.59 q-1.88 0 -3.09 -1.16 t-1.23 -2.96 q0 -1.32 0.77 -2.26 t2.47 -1.92 l-0.64 -0.82 q-1.08 -1.34 -1.08 -2.54 q0 -1.4 0.99 -2.29 t2.57 -0.93 q1.38 0 2.28 0.87 t0.92 2.13 z  M122.04 9.84 l0 1.2 l-4.84 0 l0 12.96 l-1.32 0 l0 -12.96 l-4.84 0 l0 -1.2 l11 0 z M125.54000000000002 9.84 l0 6.24 l7.92 0 l0 -6.24 l1.32 0 l0 14.16 l-1.32 0 l0 -6.72 l-7.92 0 l0 6.72 l-1.32 0 l0 -14.16 l1.32 0 z M140.32000000000002 19.04 l6.5 0 l-3.2 -7.76 z M144.36 9.84 l5.96 14.16 l-1.48 0 l-1.54 -3.76 l-7.5 0 l-1.6 3.76 l-1.38 0 l6.18 -14.16 l1.36 0 z M153.68 9.84 l0 14.16 l-1.32 0 l0 -14.16 l1.32 0 z  M169.16 9.48 q3.14 0 4.88 2.22 l-1.08 0.9 q-0.6 -0.9 -1.6 -1.41 t-2.2 -0.51 q-2.64 0 -4.3 1.74 t-1.7 4.5 q0 2.74 1.67 4.47 t4.33 1.77 q1.14 0 2.32 -0.57 t1.86 -1.63 l1.08 0.82 q-1.88 2.58 -5.26 2.58 q-3.28 -0.02 -5.27 -2.12 t-2.05 -5.32 q0 -3.26 2.05 -5.33 t5.27 -2.11 z M177.9 9.84 l0 8.5 q0 2.3 0.95 3.54 t2.89 1.28 q3.8 0 3.84 -5.02 l0 -8.3 l1.32 0 l0 8.64 q0 2.78 -1.3 4.32 t-3.86 1.56 q-2.52 0 -3.83 -1.53 t-1.33 -4.25 l0 -8.74 l1.32 0 z M191.84 9.84 l0 14.16 l-1.32 0 l0 -14.16 l1.32 0 z M199.76 9.48 q2.46 0 3.86 1.78 l-1.14 0.82 q-1.04 -1.4 -2.76 -1.4 q-1.4 0 -2.27 0.72 t-0.91 1.96 q0 1.08 0.66 1.75 t2.3 1.13 q2.16 0.64 2.88 1.13 t1.09 1.21 t0.37 1.8 q0 1.72 -1.23 2.83 t-3.17 1.15 q-3.06 0 -4.6 -2.14 l1.26 -0.84 q1.06 1.76 3.24 1.78 q1.42 0 2.3 -0.79 t0.88 -1.99 q0 -0.7 -0.25 -1.15 t-0.76 -0.78 t-1.3 -0.6 t-1.85 -0.63 q-1.6 -0.52 -2.37 -1.46 t-0.77 -2.4 q0 -1.72 1.29 -2.8 t3.25 -1.08 z M208.16 9.84 l0 14.16 l-1.32 0 l0 -14.16 l1.32 0 z M213.73999999999998 9.84 l8.62 12.4 l0.04 0 l0 -12.4 l1.32 0 l0 14.16 l-1.7 0 l-8.62 -12.4 l-0.04 0 l0 12.4 l-1.32 0 l0 -14.16 l1.7 0 z M236.26 9.84 l0 1.2 l-7.34 0 l0 5.04 l6.88 0 l0 1.2 l-6.88 0 l0 5.52 l7.66 0 l0 1.2 l-8.98 0 l0 -14.16 l8.66 0 z"></path>
        </g>
    </svg>
